<mxfile host="app.diagrams.net" modified="2023-12-18T04:01:28.219Z" agent="Mozilla/5.0 (Windows NT 10.0; Win64; x64) AppleWebKit/537.36 (KHTML, like Gecko) Chrome/120.0.0.0 Safari/537.36 Edg/120.0.0.0" etag="4FXWE5DsZzDycGic0IKM" version="22.1.11" type="github">
  <diagram name="第 1 页" id="flA4l-o1dxtjvLFhLCzr">
    <mxGraphModel dx="1733" dy="579" grid="1" gridSize="10" guides="1" tooltips="1" connect="1" arrows="1" fold="1" page="1" pageScale="1" pageWidth="827" pageHeight="1169" math="0" shadow="0">
      <root>
        <mxCell id="0" />
        <mxCell id="1" parent="0" />
        <mxCell id="jGrp5Y4HYreiGU5nSvVj-2" value="" style="edgeStyle=orthogonalEdgeStyle;rounded=0;orthogonalLoop=1;jettySize=auto;html=1;entryX=0;entryY=0.5;entryDx=0;entryDy=0;" edge="1" parent="1" source="jGrp5Y4HYreiGU5nSvVj-3" target="jGrp5Y4HYreiGU5nSvVj-8">
          <mxGeometry relative="1" as="geometry">
            <mxPoint x="300" y="312.56" as="targetPoint" />
          </mxGeometry>
        </mxCell>
        <mxCell id="jGrp5Y4HYreiGU5nSvVj-3" value="&lt;font style=&quot;font-size: 13px;&quot;&gt;RE&lt;br&gt;datasets&lt;/font&gt;" style="rounded=1;whiteSpace=wrap;html=1;fillColor=#FFD966;gradientColor=none;" vertex="1" parent="1">
          <mxGeometry x="150" y="282.50000000000006" width="120" height="60" as="geometry" />
        </mxCell>
        <mxCell id="jGrp5Y4HYreiGU5nSvVj-20" value="" style="edgeStyle=orthogonalEdgeStyle;rounded=0;orthogonalLoop=1;jettySize=auto;html=1;" edge="1" parent="1" source="jGrp5Y4HYreiGU5nSvVj-8" target="jGrp5Y4HYreiGU5nSvVj-17">
          <mxGeometry relative="1" as="geometry" />
        </mxCell>
        <mxCell id="jGrp5Y4HYreiGU5nSvVj-8" value="&lt;font style=&quot;font-size: 15px;&quot;&gt;LLM&lt;/font&gt;" style="rounded=0;whiteSpace=wrap;html=1;fillColor=#fad7ac;strokeColor=#b46504;" vertex="1" parent="1">
          <mxGeometry x="326" y="280" width="100" height="65" as="geometry" />
        </mxCell>
        <mxCell id="jGrp5Y4HYreiGU5nSvVj-10" value="&lt;font style=&quot;font-size: 12px;&quot;&gt;Instruction &lt;br&gt;Tunning&lt;/font&gt;" style="text;html=1;align=center;verticalAlign=middle;resizable=0;points=[];autosize=1;strokeColor=none;fillColor=none;" vertex="1" parent="1">
          <mxGeometry x="426" y="270" width="80" height="40" as="geometry" />
        </mxCell>
        <mxCell id="jGrp5Y4HYreiGU5nSvVj-11" value="" style="rounded=0;whiteSpace=wrap;html=1;opacity=0;" vertex="1" parent="1">
          <mxGeometry x="-1" y="430" width="817" height="262.5" as="geometry" />
        </mxCell>
        <mxCell id="jGrp5Y4HYreiGU5nSvVj-49" value="" style="edgeStyle=orthogonalEdgeStyle;rounded=0;orthogonalLoop=1;jettySize=auto;html=1;" edge="1" parent="1" source="jGrp5Y4HYreiGU5nSvVj-17" target="jGrp5Y4HYreiGU5nSvVj-48">
          <mxGeometry relative="1" as="geometry" />
        </mxCell>
        <mxCell id="jGrp5Y4HYreiGU5nSvVj-17" value="&lt;font style=&quot;font-size: 15px;&quot;&gt;CRE-LLF&lt;/font&gt;" style="rounded=0;whiteSpace=wrap;html=1;fillColor=#FFF4C3;" vertex="1" parent="1">
          <mxGeometry x="500" y="282.5" width="120" height="60" as="geometry" />
        </mxCell>
        <mxCell id="jGrp5Y4HYreiGU5nSvVj-21" value="CRE-LLF(ours)" style="text;html=1;strokeColor=none;fillColor=none;align=center;verticalAlign=middle;whiteSpace=wrap;rounded=0;" vertex="1" parent="1">
          <mxGeometry x="70" y="297.5" width="60" height="30" as="geometry" />
        </mxCell>
        <mxCell id="jGrp5Y4HYreiGU5nSvVj-22" value="Previous method" style="text;html=1;strokeColor=none;fillColor=none;align=center;verticalAlign=middle;whiteSpace=wrap;rounded=0;" vertex="1" parent="1">
          <mxGeometry x="70" y="131.25" width="60" height="30" as="geometry" />
        </mxCell>
        <mxCell id="jGrp5Y4HYreiGU5nSvVj-28" style="edgeStyle=orthogonalEdgeStyle;rounded=0;orthogonalLoop=1;jettySize=auto;html=1;exitX=1;exitY=0.5;exitDx=0;exitDy=0;entryX=0;entryY=0.5;entryDx=0;entryDy=0;" edge="1" parent="1" source="jGrp5Y4HYreiGU5nSvVj-23" target="jGrp5Y4HYreiGU5nSvVj-25">
          <mxGeometry relative="1" as="geometry" />
        </mxCell>
        <mxCell id="jGrp5Y4HYreiGU5nSvVj-34" style="edgeStyle=orthogonalEdgeStyle;rounded=0;orthogonalLoop=1;jettySize=auto;html=1;exitX=1;exitY=0.5;exitDx=0;exitDy=0;" edge="1" parent="1" source="jGrp5Y4HYreiGU5nSvVj-23" target="jGrp5Y4HYreiGU5nSvVj-26">
          <mxGeometry relative="1" as="geometry">
            <Array as="points">
              <mxPoint x="270" y="196.25" />
            </Array>
          </mxGeometry>
        </mxCell>
        <mxCell id="jGrp5Y4HYreiGU5nSvVj-35" style="edgeStyle=orthogonalEdgeStyle;rounded=0;orthogonalLoop=1;jettySize=auto;html=1;exitX=1;exitY=0.5;exitDx=0;exitDy=0;entryX=0;entryY=0.5;entryDx=0;entryDy=0;" edge="1" parent="1" source="jGrp5Y4HYreiGU5nSvVj-23" target="jGrp5Y4HYreiGU5nSvVj-24">
          <mxGeometry relative="1" as="geometry">
            <Array as="points">
              <mxPoint x="270" y="96.25" />
            </Array>
          </mxGeometry>
        </mxCell>
        <mxCell id="jGrp5Y4HYreiGU5nSvVj-23" value="&lt;font style=&quot;font-size: 13px;&quot;&gt;RE&lt;br&gt;datasets&lt;/font&gt;" style="rounded=1;whiteSpace=wrap;html=1;fillColor=#FFD966;gradientColor=none;" vertex="1" parent="1">
          <mxGeometry x="150" y="116.25000000000006" width="120" height="60" as="geometry" />
        </mxCell>
        <mxCell id="jGrp5Y4HYreiGU5nSvVj-44" style="edgeStyle=orthogonalEdgeStyle;rounded=0;orthogonalLoop=1;jettySize=auto;html=1;exitX=1;exitY=0.5;exitDx=0;exitDy=0;entryX=0;entryY=0.25;entryDx=0;entryDy=0;" edge="1" parent="1" source="jGrp5Y4HYreiGU5nSvVj-24" target="jGrp5Y4HYreiGU5nSvVj-36">
          <mxGeometry relative="1" as="geometry" />
        </mxCell>
        <mxCell id="jGrp5Y4HYreiGU5nSvVj-24" value="Sentence" style="rounded=0;whiteSpace=wrap;html=1;fillColor=#FAD7AC;strokeColor=#d79b00;" vertex="1" parent="1">
          <mxGeometry x="320" y="76.25" width="104" height="40" as="geometry" />
        </mxCell>
        <mxCell id="jGrp5Y4HYreiGU5nSvVj-39" style="edgeStyle=orthogonalEdgeStyle;rounded=0;orthogonalLoop=1;jettySize=auto;html=1;exitX=1;exitY=0.5;exitDx=0;exitDy=0;entryX=0;entryY=0.75;entryDx=0;entryDy=0;" edge="1" parent="1" source="jGrp5Y4HYreiGU5nSvVj-25" target="jGrp5Y4HYreiGU5nSvVj-36">
          <mxGeometry relative="1" as="geometry" />
        </mxCell>
        <mxCell id="jGrp5Y4HYreiGU5nSvVj-25" value="Entity" style="rounded=0;whiteSpace=wrap;html=1;fillColor=#FAD7AC;" vertex="1" parent="1">
          <mxGeometry x="320" y="126.25" width="104" height="40" as="geometry" />
        </mxCell>
        <mxCell id="jGrp5Y4HYreiGU5nSvVj-43" style="edgeStyle=orthogonalEdgeStyle;rounded=0;orthogonalLoop=1;jettySize=auto;html=1;exitX=1;exitY=0.5;exitDx=0;exitDy=0;entryX=0;entryY=0.75;entryDx=0;entryDy=0;" edge="1" parent="1" source="jGrp5Y4HYreiGU5nSvVj-26" target="jGrp5Y4HYreiGU5nSvVj-36">
          <mxGeometry relative="1" as="geometry" />
        </mxCell>
        <mxCell id="jGrp5Y4HYreiGU5nSvVj-26" value="Relative Position" style="rounded=0;whiteSpace=wrap;html=1;fillColor=#FAD7AC;" vertex="1" parent="1">
          <mxGeometry x="320" y="176.25" width="104" height="40" as="geometry" />
        </mxCell>
        <mxCell id="jGrp5Y4HYreiGU5nSvVj-52" style="edgeStyle=orthogonalEdgeStyle;rounded=0;orthogonalLoop=1;jettySize=auto;html=1;exitX=1;exitY=0.5;exitDx=0;exitDy=0;entryX=0;entryY=0.5;entryDx=0;entryDy=0;" edge="1" parent="1" source="jGrp5Y4HYreiGU5nSvVj-36" target="jGrp5Y4HYreiGU5nSvVj-45">
          <mxGeometry relative="1" as="geometry" />
        </mxCell>
        <mxCell id="jGrp5Y4HYreiGU5nSvVj-36" value="&lt;font style=&quot;font-size: 15px;&quot;&gt;Bert-PAGG&lt;/font&gt;" style="rounded=0;whiteSpace=wrap;html=1;fillColor=#FFF4C3;" vertex="1" parent="1">
          <mxGeometry x="500" y="120" width="110" height="63.75" as="geometry" />
        </mxCell>
        <mxCell id="jGrp5Y4HYreiGU5nSvVj-45" value="Relation" style="whiteSpace=wrap;html=1;rounded=0;fillColor=#FF9933;" vertex="1" parent="1">
          <mxGeometry x="680" y="121.88" width="120" height="60" as="geometry" />
        </mxCell>
        <mxCell id="jGrp5Y4HYreiGU5nSvVj-47" value="concat" style="text;html=1;align=center;verticalAlign=middle;resizable=0;points=[];autosize=1;strokeColor=none;fillColor=none;" vertex="1" parent="1">
          <mxGeometry x="610" y="120" width="60" height="30" as="geometry" />
        </mxCell>
        <mxCell id="jGrp5Y4HYreiGU5nSvVj-48" value="Relation" style="whiteSpace=wrap;html=1;fillColor=#FF9933;rounded=0;" vertex="1" parent="1">
          <mxGeometry x="680" y="282.5" width="120" height="60" as="geometry" />
        </mxCell>
      </root>
    </mxGraphModel>
  </diagram>
</mxfile>
